<?xml version="1.0" encoding="UTF-8"?>
<svg id="Camada_1" data-name="Camada 1" xmlns="http://www.w3.org/2000/svg" version="1.1" viewBox="0 0 253.12 378.12">
  <defs>
    <style>
      .cls-1 {
        fill: #fff;
        stroke-width: 0px;
      }
    </style>
  </defs>
  <path class="cls-1" d="M185.92,24.64H53.57c-14.89,0-27,12.11-27,27v285.99c0,14.89,12.11,27,27,27h132.35c14.89,0,27-12.11,27-27V51.64c0-14.89-12.11-27-27-27h0ZM109.72,35.81h20.04c5.6,0,10.16,4.56,10.16,10.16s-4.56,10.16-10.16,10.16h-20.04c-5.6,0-10.16-4.56-10.16-10.16s4.56-10.16,10.16-10.16h0ZM140.66,350.88h-41.85c-5.6,0-10.16-4.56-10.16-10.16s4.56-10.16,10.16-10.16h41.85c5.6,0,10.16,4.56,10.16,10.16s-4.56,10.16-10.16,10.16ZM189.88,300.07H49.6V84.21h140.29v215.86h0Z"/>
</svg>