<?xml version="1.0" encoding="UTF-8"?>
<svg id="Camada_1" data-name="Camada 1" xmlns="http://www.w3.org/2000/svg" version="1.1" viewBox="0 0 253.1 378.1">
  <defs>
    <style>
      .cls-1 {
        fill: #fff;
        stroke-width: 0px;
      }
    </style>
  </defs>
  <path class="cls-1" d="M185.9,24.6H53.6c-14.9,0-27,12.1-27,27v286c0,14.9,12.1,27,27,27h132.4c14.9,0,27-12.1,27-27V51.6c0-14.9-12.1-27-27-27h0ZM109.7,35.8h20c5.6,0,10.2,4.6,10.2,10.2s-4.6,10.2-10.2,10.2h-20c-5.6,0-10.2-4.6-10.2-10.2s4.6-10.2,10.2-10.2h0ZM140.7,350.9h-41.8c-5.6,0-10.2-4.6-10.2-10.2s4.6-10.2,10.2-10.2h41.8c5.6,0,10.2,4.6,10.2,10.2s-4.6,10.2-10.2,10.2ZM189.9,300.1H49.6V84.2h140.3v215.9h0Z"/>
</svg>